<svg xmlns="http://www.w3.org/2000/svg" xmlns:xlink="http://www.w3.org/1999/xlink" viewBox="0 0 283.46 283.46">
    <defs>

        <style>
            .cls-1{fill:url(#linear-gradient);}.cls-2{fill:#fafafa;}.cls-3{fill:#e6e6e6;}.cls-4{fill:#727272;}.cls-5{fill:#ffd599;}.cls-6{fill:#d3af7f;}.cls-7{fill:#a58865;}.cls-8{fill:#ef8326;}.cls-9{fill:#f8d984;}.cls-10{fill:#304049;}.cls-11{fill:#fde107;}.cls-12{fill:#fbbb18;}.cls-13{fill:#ec8541;}.cls-14{fill:#e8e8e8;}
            #shadow {filter: drop-shadow(rgb(0, 0, 0) 1px 3px 5px);}
        </style>

        <linearGradient id="linear-gradient" x1="0.5" y1="-0.5" x2="283.5" y2="284.5" gradientUnits="userSpaceOnUse">
            <stop offset="0" stop-color="#b8681d"/>
            <stop offset="1" stop-color="#ece9d8"/>
        </linearGradient>

    </defs>
    <title>Story builder</title>

    <g id="Layer_2" data-name="Layer 2">
        <g id="background_05" data-name="background 05">
            <rect class="cls-1" width="283.46" height="283.46"/>
        </g>

        <g id="shadow">
            <path class="cls-2"
                  d="M230.58,27.76H120.75A13.72,13.72,0,0,0,110.27,32C99.36,43.68,105.92,75,105.92,75s-36.26,2.9-49.85,22.55A28.23,28.23,0,0,0,51,114V256.23H230.58Z"/>
            <path class="cls-4"
                  d="M230.58,259.84H51a3.61,3.61,0,0,1-3.61-3.61V114a31.88,31.88,0,0,1,5.71-18.5c11.8-17,38.46-22.24,48.58-23.64-1.5-9.33-3.86-31.8,6-42.27a17.25,17.25,0,0,1,13.11-5.42H230.58a3.6,3.6,0,0,1,3.61,3.6V256.23A3.61,3.61,0,0,1,230.58,259.84Zm-176-7.22H227V31.37H120.75a10.19,10.19,0,0,0-7.85,3.14c-7.9,8.42-5.17,31.55-3.45,39.75a3.62,3.62,0,0,1-3.24,4.33c-.35,0-34.73,3-47.18,21A24.82,24.82,0,0,0,54.6,114Z"/>
            <path class="cls-3"
                  d="M53.1,95.49l54.54-65.91c-9.82,10.47-7.46,32.94-6,42.27C91.56,73.25,64.9,78.45,53.1,95.49Z"/>
        </g>

        <g id="story">
            <path class="cls-4" d="M134.2,96H79.83a3.5,3.5,0,0,1,0-7H134.2a3.5,3.5,0,0,1,0,7Z"/>
            <path class="cls-4" d="M134.2,123.08H79.83a3.5,3.5,0,0,1,0-7H134.2a3.5,3.5,0,0,1,0,7Z"/>
            <path class="cls-4" d="M134.2,150.17H79.83a3.5,3.5,0,0,1,0-7H134.2a3.5,3.5,0,0,1,0,7Z"/>
            <path class="cls-4" d="M207.52,177.27H79.83a3.5,3.5,0,0,1,0-7H207.52a3.5,3.5,0,0,1,0,7Z"/>
            <path class="cls-4" d="M207.52,204.36H79.83a3.5,3.5,0,1,1,0-7H207.52a3.5,3.5,0,0,1,0,7Z"/>
            <path class="cls-4" d="M207.52,231.45H79.83a3.5,3.5,0,1,1,0-7H207.52a3.5,3.5,0,1,1,0,7Z"/>
            <polygon class="cls-5" points="204.57 115.57 186.16 95.13 159.25 100.85 177.62 121.42 204.57 115.57"/>
            <path class="cls-4"
                  d="M177.62,124.92a3.5,3.5,0,0,1-2.61-1.17l-18.37-20.57a3.51,3.51,0,0,1,1.89-5.76l26.91-5.72a3.49,3.49,0,0,1,3.32,1.09l18.41,20.44a3.5,3.5,0,0,1-1.86,5.76l-26.95,5.85A3.05,3.05,0,0,1,177.62,124.92ZM165.88,103l13,14.55,19.06-4.14L184.91,99Z"/>
            <polygon class="cls-6" points="169.16 147.45 196.07 141.74 204.57 115.57 177.62 121.42 169.16 147.45"/>
            <path class="cls-4"
                  d="M169.16,151a3.49,3.49,0,0,1-3.33-4.58l8.46-26a3.53,3.53,0,0,1,2.59-2.34l27-5.85a3.5,3.5,0,0,1,4.07,4.5l-8.5,26.17a3.51,3.51,0,0,1-2.6,2.34l-26.91,5.72A3.61,3.61,0,0,1,169.16,151Zm11.17-26.53-6,18.35,19-4,6-18.45Z"/>
            <polygon class="cls-7" points="177.62 121.42 159.25 100.85 150.75 127.01 169.16 147.45 177.62 121.42"/>
            <path class="cls-4"
                  d="M169.16,151a3.51,3.51,0,0,1-2.6-1.15l-18.41-20.45a3.53,3.53,0,0,1-.73-3.42l8.51-26.16a3.49,3.49,0,0,1,5.94-1.25l18.36,20.57a3.51,3.51,0,0,1,.72,3.41l-8.46,26a3.52,3.52,0,0,1-2.6,2.34A3.61,3.61,0,0,1,169.16,151Zm-14.45-24.78,13,14.44,6-18.36-13-14.53Z"/>
            <path class="cls-4"
                  d="M108.73,70.22h98.62a3.5,3.5,0,0,0,3.5-3.5V51.19a3.49,3.49,0,0,0-3.5-3.5H108a63.44,63.44,0,0,0-.42,7h96.28v8.53H107.91C108.1,65.55,108.38,67.88,108.73,70.22Z"/>
        </g>

        <g id="shadow">
            <path class="cls-8"
                  d="M242,116.16h15.14A3.86,3.86,0,0,1,261,120v8.26a0,0,0,0,1,0,0H238.18a0,0,0,0,1,0,0V120A3.86,3.86,0,0,1,242,116.16Z"
                  transform="translate(143.64 -134.71) rotate(41.5)"/>
            <path class="cls-9" d="M167.61,218.49,189,207.92l-17.12-15.15L164,215.34A2.57,2.57,0,0,0,167.61,218.49Z"/>
            <path class="cls-10" d="M167.61,218.49l6.54-3.23-7.7-6.81L164,215.34A2.57,2.57,0,0,0,167.61,218.49Z"/>
            <rect class="cls-11" x="202.48" y="112.1" width="7.62" height="95.14"
                  transform="translate(157.59 -96.61) rotate(41.5)"/>
            <rect class="cls-12" x="208.19" y="117.15" width="7.62" height="95.14"
                  transform="translate(162.36 -99.12) rotate(41.5)"/>
            <rect class="cls-13" x="213.9" y="122.2" width="7.62" height="95.14"
                  transform="translate(167.14 -101.64) rotate(41.5)"/>
            <rect class="cls-14" x="232.42" y="126.09" width="22.86" height="5.27"
                  transform="translate(146.51 -129.26) rotate(41.5)"/>
        </g>
    </g>
</svg>