<svg xmlns="http://www.w3.org/2000/svg" xmlns:xlink="http://www.w3.org/1999/xlink" viewBox="0 0 185.87 247.65">
    <defs>

        <style>
            .cls-1{fill:#fafafa;}.cls-2{fill:#c8c8c8;}.cls-3{fill:url(#linear-gradient);}.cls-4{fill:#e6e6e6;}.cls-5{fill:#727272;}.cls-6{fill:#ffd599;}.cls-7{fill:#d3af7f;}.cls-8{fill:#a58865;}.cls-9{fill:#ef8326;}.cls-10{fill:#f8d984;}.cls-11{fill:#304049;}.cls-12{fill:#fde107;}.cls-13{fill:#fbbb18;}.cls-14{fill:#ec8541;}.cls-15{fill:#e8e8e8;}
            #shadow {filter: drop-shadow(rgb(0, 0, 0) 1px 3px 5px);}

        </style>

        <linearGradient id="linear-gradient" x1="37.66" y1="99.48" x2="148.43" y2="211.04"
                        gradientUnits="userSpaceOnUse">
            <stop offset="0" stop-color="#b8681d"/>
            <stop offset="1" stop-color="#ece9d8"/>
        </linearGradient>

    </defs>

    <title>ITEM_STORY</title>

    <g id="item_story" data-name="item_story">
        <!--        <path d="M231.92,69.76,182.53,20.37a9,9,0,0,0-6.38-2.65H65.7a17,17,0,0,0-17,17V248.37a17,17,0,0,0,17,17H217.56a17,17,0,0,0,17-17V76.14A9,9,0,0,0,231.92,69.76Z"-->
        <!--              transform="translate(-48.69 -17.72)"/>-->
        <path class="cls-1"
              d="M65.7,258.29a9.93,9.93,0,0,1-9.92-9.92V34.73a9.93,9.93,0,0,1,9.92-9.92H168.1V71.43a12.78,12.78,0,0,0,12.76,12.76h46.62V248.37a9.93,9.93,0,0,1-9.92,9.92Z"
              transform="translate(-48.69 -17.72)"/>
        <path class="cls-2"
              d="M180.86,77.1h41.52a2.84,2.84,0,0,0,2-4.84L180,27.9a2.84,2.84,0,0,0-4.84,2V71.43A5.68,5.68,0,0,0,180.86,77.1Z"
              transform="translate(-48.69 -17.72)"/>
        <path d="M80.89,58.11a3.41,3.41,0,1,1,0-6.81H143a3.41,3.41,0,0,1,0,6.81Z" transform="translate(-48.69 -17.72)"/>
        <path d="M80.89,93.37a3.41,3.41,0,1,1,0-6.81H143a3.41,3.41,0,0,1,0,6.81Z" transform="translate(-48.69 -17.72)"/>
    </g>

    <g id="story">
        <rect id="shadow" class="cls-3" x="29.16" y="91.38" width="127.56" height="127.56" rx="28.35" ry="28.35"/>
        <path id="shadow" class="cls-1"
              d="M181.61,121.59H132.18a6.18,6.18,0,0,0-4.71,1.93c-4.91,5.23-2,19.33-2,19.33s-16.31,1.3-22.43,10.14a12.72,12.72,0,0,0-2.28,7.4v64h80.81Z"
              transform="translate(-48.69 -17.72)"/>
        <path d="M181.61,226H100.8a1.62,1.62,0,0,1-1.62-1.63v-64a14.36,14.36,0,0,1,2.56-8.32c5.31-7.67,17.31-10,21.87-10.64-.68-4.2-1.74-14.31,2.68-19a7.74,7.74,0,0,1,5.89-2.44h49.43a1.62,1.62,0,0,1,1.62,1.62V224.4A1.62,1.62,0,0,1,181.61,226Zm-79.19-3.25H180V123.22H132.18a4.59,4.59,0,0,0-3.53,1.41c-3.55,3.79-2.32,14.19-1.55,17.88a1.66,1.66,0,0,1-.29,1.31,1.6,1.6,0,0,1-1.17.64c-.15,0-15.62,1.36-21.23,9.46a11.17,11.17,0,0,0-2,6.47Z"
              transform="translate(-48.69 -17.72)"/>
        <path class="cls-4"
              d="M101.74,152.07l24.55-29.66c-4.42,4.71-3.36,14.82-2.68,19C119.05,142.06,107.05,144.4,101.74,152.07Z"
              transform="translate(-48.69 -17.72)"/>
        <path class="cls-5" d="M138.24,152.29H113.77a1.58,1.58,0,0,1,0-3.15h24.47a1.58,1.58,0,0,1,0,3.15Z"
              transform="translate(-48.69 -17.72)"/>
        <path class="cls-5" d="M138.24,164.49H113.77a1.58,1.58,0,0,1,0-3.15h24.47a1.58,1.58,0,0,1,0,3.15Z"
              transform="translate(-48.69 -17.72)"/>
        <path class="cls-5" d="M138.24,176.68H113.77a1.58,1.58,0,0,1,0-3.15h24.47a1.58,1.58,0,0,1,0,3.15Z"
              transform="translate(-48.69 -17.72)"/>
        <path class="cls-5" d="M171.23,188.87H113.77a1.58,1.58,0,0,1,0-3.15h57.46a1.58,1.58,0,1,1,0,3.15Z"
              transform="translate(-48.69 -17.72)"/>
        <path class="cls-5" d="M171.23,201.06H113.77a1.58,1.58,0,0,1,0-3.15h57.46a1.58,1.58,0,1,1,0,3.15Z"
              transform="translate(-48.69 -17.72)"/>
        <path class="cls-5" d="M171.23,213.25H113.77a1.58,1.58,0,0,1,0-3.15h57.46a1.58,1.58,0,1,1,0,3.15Z"
              transform="translate(-48.69 -17.72)"/>
        <polygon class="cls-6" points="121.21 143.38 112.93 134.18 100.82 136.76 109.09 146.02 121.21 143.38"/>
        <path class="cls-5"
              d="M157.78,165.31a1.56,1.56,0,0,1-1.18-.52l-8.26-9.26A1.55,1.55,0,0,1,148,154a1.58,1.58,0,0,1,1.17-1.05l12.1-2.57a1.56,1.56,0,0,1,1.5.48l8.29,9.2a1.59,1.59,0,0,1-.84,2.6l-12.13,2.63A1.84,1.84,0,0,1,157.78,165.31Zm-5.28-9.85,5.84,6.55,8.58-1.87-5.86-6.5Z"
              transform="translate(-48.69 -17.72)"/>
        <polygon class="cls-7" points="105.28 157.73 117.39 155.16 121.21 143.38 109.09 146.02 105.28 157.73"/>
        <path class="cls-5"
              d="M154,177a1.58,1.58,0,0,1-1.5-2.06l3.81-11.72a1.58,1.58,0,0,1,1.16-1.05l12.13-2.63a1.57,1.57,0,0,1,1.83,2l-3.82,11.78a1.6,1.6,0,0,1-1.17,1L154.3,177A1.24,1.24,0,0,1,154,177Zm5-11.94-2.69,8.26,8.55-1.82,2.7-8.3Z"
              transform="translate(-48.69 -17.72)"/>
        <polygon class="cls-8" points="109.09 146.02 100.82 136.76 97 148.53 105.28 157.73 109.09 146.02"/>
        <path class="cls-5"
              d="M154,177a1.59,1.59,0,0,1-1.17-.52l-8.28-9.2a1.58,1.58,0,0,1-.33-1.54L148,154a1.58,1.58,0,0,1,2.67-.56l8.26,9.26a1.57,1.57,0,0,1,.33,1.54l-3.81,11.71A1.54,1.54,0,0,1,154.3,177,1.24,1.24,0,0,1,154,177Zm-6.5-11.15,5.85,6.49,2.68-8.26-5.84-6.54Z"
              transform="translate(-48.69 -17.72)"/>
        <path class="cls-5"
              d="M126.78,140.7h44.38a1.57,1.57,0,0,0,1.57-1.58v-7a1.57,1.57,0,0,0-1.57-1.57H126.44a29.13,29.13,0,0,0-.19,3.15h43.33v3.84H126.41C126.49,138.6,126.62,139.65,126.78,140.7Z"
              transform="translate(-48.69 -17.72)"/>
        <path class="cls-9"
              d="M186.76,161.37h6.81a1.74,1.74,0,0,1,1.74,1.74v3.71a0,0,0,0,1,0,0H185a0,0,0,0,1,0,0v-3.71A1.74,1.74,0,0,1,186.76,161.37Z"
              transform="translate(107.78 -102.54) rotate(41.5)"/>
        <path id="shadow" class="cls-10"
              d="M153.27,207.42l9.65-4.76-7.71-6.81L151.67,206A1.15,1.15,0,0,0,153.27,207.42Z"
              transform="translate(-48.69 -17.72)"/>
        <path id="shadow" class="cls-11" d="M153.27,207.42l2.95-1.45-3.47-3.07-1.08,3.1A1.15,1.15,0,0,0,153.27,207.42Z"
              transform="translate(-48.69 -17.72)"/>
        <rect id="shadow" class="cls-12" x="168.97" y="159.55" width="3.43" height="42.81"
              transform="translate(114.05 -85.39) rotate(41.5)"/>
        <rect id="shadow" class="cls-13" x="171.53" y="161.82" width="3.43" height="42.81"
              transform="translate(116.2 -86.52) rotate(41.5)"/>
        <rect id="shadow" class="cls-14" x="174.1" y="164.09" width="3.43" height="42.81"
              transform="translate(118.35 -87.66) rotate(41.5)"/>
        <rect id="shadow" class="cls-15" x="182.44" y="165.84" width="10.29" height="2.37"
              transform="translate(109.07 -100.08) rotate(41.5)"/>
    </g>
</svg>